<?xml version="1.0" encoding="UTF-8" standalone="no"?>
<!DOCTYPE svg PUBLIC "-//W3C//DTD SVG 1.1//EN"
 "http://www.w3.org/Graphics/SVG/1.1/DTD/svg11.dtd">
<!-- Generated by graphviz version 2.50.0 (0)
 -->
<!-- Pages: 1 -->
<svg width="2325pt" height="375pt"
 viewBox="0.00 0.00 2324.99 375.00" xmlns="http://www.w3.org/2000/svg" xmlns:xlink="http://www.w3.org/1999/xlink">
<g id="graph0" class="graph" transform="scale(1 1) rotate(0) translate(4 371)">
<polygon fill="white" stroke="transparent" points="-4,4 -4,-371 2320.99,-371 2320.99,4 -4,4"/>
<!-- 124464894967984 -->
<g id="node1" class="node">
<title>124464894967984</title>
<polygon fill="none" stroke="black" points="879,-240.5 879,-276.5 1046,-276.5 1046,-240.5 879,-240.5"/>
<text text-anchor="middle" x="921.5" y="-254.8" font-family="Times,serif" font-size="14.00">data &#45;1.2868</text>
<polyline fill="none" stroke="black" points="964,-240.5 964,-276.5 "/>
<text text-anchor="middle" x="1005" y="-254.8" font-family="Times,serif" font-size="14.00">grad 0.0000</text>
</g>
<!-- 124464894968032ReLU -->
<g id="node5" class="node">
<title>124464894968032ReLU</title>
<ellipse fill="none" stroke="black" cx="1114.5" cy="-258.5" rx="32.49" ry="18"/>
<text text-anchor="middle" x="1114.5" y="-254.8" font-family="Times,serif" font-size="14.00">ReLU</text>
</g>
<!-- 124464894967984&#45;&gt;124464894968032ReLU -->
<g id="edge25" class="edge">
<title>124464894967984&#45;&gt;124464894968032ReLU</title>
<path fill="none" stroke="black" d="M1046.4,-258.5C1055.16,-258.5 1063.78,-258.5 1071.76,-258.5"/>
<polygon fill="black" stroke="black" points="1071.86,-262 1081.86,-258.5 1071.86,-255 1071.86,-262"/>
</g>
<!-- 124464894967984+ -->
<g id="node2" class="node">
<title>124464894967984+</title>
<ellipse fill="none" stroke="black" cx="816" cy="-258.5" rx="27" ry="18"/>
<text text-anchor="middle" x="816" y="-254.8" font-family="Times,serif" font-size="14.00">+</text>
</g>
<!-- 124464894967984+&#45;&gt;124464894967984 -->
<g id="edge1" class="edge">
<title>124464894967984+&#45;&gt;124464894967984</title>
<path fill="none" stroke="black" d="M843.17,-258.5C850.75,-258.5 859.5,-258.5 868.74,-258.5"/>
<polygon fill="black" stroke="black" points="868.92,-262 878.92,-258.5 868.92,-255 868.92,-262"/>
</g>
<!-- 124464894785728 -->
<g id="node3" class="node">
<title>124464894785728</title>
<polygon fill="none" stroke="black" points="1470.99,-148.5 1470.99,-184.5 1632.99,-184.5 1632.99,-148.5 1470.99,-148.5"/>
<text text-anchor="middle" x="1510.99" y="-162.8" font-family="Times,serif" font-size="14.00">data 0.6988</text>
<polyline fill="none" stroke="black" points="1550.99,-148.5 1550.99,-184.5 "/>
<text text-anchor="middle" x="1591.99" y="-162.8" font-family="Times,serif" font-size="14.00">grad 1.0000</text>
</g>
<!-- 124464894969424+ -->
<g id="node31" class="node">
<title>124464894969424+</title>
<ellipse fill="none" stroke="black" cx="1749.99" cy="-170.5" rx="27" ry="18"/>
<text text-anchor="middle" x="1749.99" y="-166.8" font-family="Times,serif" font-size="14.00">+</text>
</g>
<!-- 124464894785728&#45;&gt;124464894969424+ -->
<g id="edge24" class="edge">
<title>124464894785728&#45;&gt;124464894969424+</title>
<path fill="none" stroke="black" d="M1633,-168.13C1660.59,-168.7 1690.16,-169.3 1712.54,-169.76"/>
<polygon fill="black" stroke="black" points="1712.52,-173.26 1722.59,-169.96 1712.67,-166.26 1712.52,-173.26"/>
</g>
<!-- 124464894968032 -->
<g id="node4" class="node">
<title>124464894968032</title>
<polygon fill="none" stroke="black" points="1182.99,-240.5 1182.99,-276.5 1344.99,-276.5 1344.99,-240.5 1182.99,-240.5"/>
<text text-anchor="middle" x="1222.99" y="-254.8" font-family="Times,serif" font-size="14.00">data 0.0000</text>
<polyline fill="none" stroke="black" points="1262.99,-240.5 1262.99,-276.5 "/>
<text text-anchor="middle" x="1303.99" y="-254.8" font-family="Times,serif" font-size="14.00">grad 0.9093</text>
</g>
<!-- 124464894969232* -->
<g id="node27" class="node">
<title>124464894969232*</title>
<ellipse fill="none" stroke="black" cx="1407.99" cy="-221.5" rx="27" ry="18"/>
<text text-anchor="middle" x="1407.99" y="-217.8" font-family="Times,serif" font-size="14.00">*</text>
</g>
<!-- 124464894968032&#45;&gt;124464894969232* -->
<g id="edge23" class="edge">
<title>124464894968032&#45;&gt;124464894969232*</title>
<path fill="none" stroke="black" d="M1334.33,-240.43C1347.73,-236.94 1361.2,-233.43 1372.84,-230.4"/>
<polygon fill="black" stroke="black" points="1373.76,-233.78 1382.56,-227.87 1372,-227 1373.76,-233.78"/>
</g>
<!-- 124464894968032ReLU&#45;&gt;124464894968032 -->
<g id="edge2" class="edge">
<title>124464894968032ReLU&#45;&gt;124464894968032</title>
<path fill="none" stroke="black" d="M1147.14,-258.5C1154.97,-258.5 1163.76,-258.5 1172.9,-258.5"/>
<polygon fill="black" stroke="black" points="1172.92,-262 1182.92,-258.5 1172.92,-255 1172.92,-262"/>
</g>
<!-- 124464894785776 -->
<g id="node6" class="node">
<title>124464894785776</title>
<polygon fill="none" stroke="black" points="1182.99,-116.5 1182.99,-152.5 1344.99,-152.5 1344.99,-116.5 1182.99,-116.5"/>
<text text-anchor="middle" x="1222.99" y="-130.8" font-family="Times,serif" font-size="14.00">data 0.4289</text>
<polyline fill="none" stroke="black" points="1262.99,-116.5 1262.99,-152.5 "/>
<text text-anchor="middle" x="1303.99" y="-130.8" font-family="Times,serif" font-size="14.00">grad 0.0000</text>
</g>
<!-- 124464894969616* -->
<g id="node33" class="node">
<title>124464894969616*</title>
<ellipse fill="none" stroke="black" cx="1407.99" cy="-115.5" rx="27" ry="18"/>
<text text-anchor="middle" x="1407.99" y="-111.8" font-family="Times,serif" font-size="14.00">*</text>
</g>
<!-- 124464894785776&#45;&gt;124464894969616* -->
<g id="edge17" class="edge">
<title>124464894785776&#45;&gt;124464894969616*</title>
<path fill="none" stroke="black" d="M1345.12,-123.78C1354.22,-122.56 1363.12,-121.37 1371.2,-120.29"/>
<polygon fill="black" stroke="black" points="1371.85,-123.73 1381.3,-118.94 1370.92,-116.8 1371.85,-123.73"/>
</g>
<!-- 124464894785824 -->
<g id="node7" class="node">
<title>124464894785824</title>
<polygon fill="none" stroke="black" points="1182.99,-185.5 1182.99,-221.5 1344.99,-221.5 1344.99,-185.5 1182.99,-185.5"/>
<text text-anchor="middle" x="1222.99" y="-199.8" font-family="Times,serif" font-size="14.00">data 0.9093</text>
<polyline fill="none" stroke="black" points="1262.99,-185.5 1262.99,-221.5 "/>
<text text-anchor="middle" x="1303.99" y="-199.8" font-family="Times,serif" font-size="14.00">grad 0.0000</text>
</g>
<!-- 124464894785824&#45;&gt;124464894969232* -->
<g id="edge29" class="edge">
<title>124464894785824&#45;&gt;124464894969232*</title>
<path fill="none" stroke="black" d="M1345.12,-213.66C1354.22,-214.81 1363.12,-215.94 1371.2,-216.96"/>
<polygon fill="black" stroke="black" points="1370.94,-220.46 1381.3,-218.24 1371.82,-213.51 1370.94,-220.46"/>
</g>
<!-- 124464894609840 -->
<g id="node8" class="node">
<title>124464894609840</title>
<polygon fill="none" stroke="black" points="2.5,-179.5 2.5,-215.5 164.5,-215.5 164.5,-179.5 2.5,-179.5"/>
<text text-anchor="middle" x="42.5" y="-193.8" font-family="Times,serif" font-size="14.00">data 2.0000</text>
<polyline fill="none" stroke="black" points="82.5,-179.5 82.5,-215.5 "/>
<text text-anchor="middle" x="123.5" y="-193.8" font-family="Times,serif" font-size="14.00">grad 0.0000</text>
</g>
<!-- 124464894781888* -->
<g id="node10" class="node">
<title>124464894781888*</title>
<ellipse fill="none" stroke="black" cx="230" cy="-279.5" rx="27" ry="18"/>
<text text-anchor="middle" x="230" y="-275.8" font-family="Times,serif" font-size="14.00">*</text>
</g>
<!-- 124464894609840&#45;&gt;124464894781888* -->
<g id="edge40" class="edge">
<title>124464894609840&#45;&gt;124464894781888*</title>
<path fill="none" stroke="black" d="M116.57,-215.7C141.49,-229.84 175.76,-249.29 199.89,-262.98"/>
<polygon fill="black" stroke="black" points="198.18,-266.04 208.61,-267.93 201.64,-259.95 198.18,-266.04"/>
</g>
<!-- 124464894968320* -->
<g id="node13" class="node">
<title>124464894968320*</title>
<ellipse fill="none" stroke="black" cx="230" cy="-87.5" rx="27" ry="18"/>
<text text-anchor="middle" x="230" y="-83.8" font-family="Times,serif" font-size="14.00">*</text>
</g>
<!-- 124464894609840&#45;&gt;124464894968320* -->
<g id="edge35" class="edge">
<title>124464894609840&#45;&gt;124464894968320*</title>
<path fill="none" stroke="black" d="M108.36,-179.34C134.55,-159.4 176.42,-127.52 203.31,-107.06"/>
<polygon fill="black" stroke="black" points="205.64,-109.68 211.48,-100.84 201.4,-104.11 205.64,-109.68"/>
</g>
<!-- 124464894781888 -->
<g id="node9" class="node">
<title>124464894781888</title>
<polygon fill="none" stroke="black" points="295.5,-275.5 295.5,-311.5 457.5,-311.5 457.5,-275.5 295.5,-275.5"/>
<text text-anchor="middle" x="335.5" y="-289.8" font-family="Times,serif" font-size="14.00">data 1.4978</text>
<polyline fill="none" stroke="black" points="375.5,-275.5 375.5,-311.5 "/>
<text text-anchor="middle" x="416.5" y="-289.8" font-family="Times,serif" font-size="14.00">grad 0.0000</text>
</g>
<!-- 124464909327472+ -->
<g id="node23" class="node">
<title>124464909327472+</title>
<ellipse fill="none" stroke="black" cx="523" cy="-293.5" rx="27" ry="18"/>
<text text-anchor="middle" x="523" y="-289.8" font-family="Times,serif" font-size="14.00">+</text>
</g>
<!-- 124464894781888&#45;&gt;124464909327472+ -->
<g id="edge37" class="edge">
<title>124464894781888&#45;&gt;124464909327472+</title>
<path fill="none" stroke="black" d="M457.78,-293.5C467.57,-293.5 477.16,-293.5 485.82,-293.5"/>
<polygon fill="black" stroke="black" points="485.88,-297 495.88,-293.5 485.88,-290 485.88,-297"/>
</g>
<!-- 124464894781888*&#45;&gt;124464894781888 -->
<g id="edge3" class="edge">
<title>124464894781888*&#45;&gt;124464894781888</title>
<path fill="none" stroke="black" d="M256.83,-282C265.2,-282.81 275.01,-283.76 285.33,-284.76"/>
<polygon fill="black" stroke="black" points="285.08,-288.26 295.37,-285.74 285.75,-281.29 285.08,-288.26"/>
</g>
<!-- 124464894785968 -->
<g id="node11" class="node">
<title>124464894785968</title>
<polygon fill="none" stroke="black" points="2.5,-261.5 2.5,-297.5 164.5,-297.5 164.5,-261.5 2.5,-261.5"/>
<text text-anchor="middle" x="42.5" y="-275.8" font-family="Times,serif" font-size="14.00">data 0.7489</text>
<polyline fill="none" stroke="black" points="82.5,-261.5 82.5,-297.5 "/>
<text text-anchor="middle" x="123.5" y="-275.8" font-family="Times,serif" font-size="14.00">grad 0.0000</text>
</g>
<!-- 124464894785968&#45;&gt;124464894781888* -->
<g id="edge28" class="edge">
<title>124464894785968&#45;&gt;124464894781888*</title>
<path fill="none" stroke="black" d="M164.78,-279.5C174.57,-279.5 184.16,-279.5 192.82,-279.5"/>
<polygon fill="black" stroke="black" points="192.88,-283 202.88,-279.5 192.88,-276 192.88,-283"/>
</g>
<!-- 124464894968320 -->
<g id="node12" class="node">
<title>124464894968320</title>
<polygon fill="none" stroke="black" points="293,-55.5 293,-91.5 460,-91.5 460,-55.5 293,-55.5"/>
<text text-anchor="middle" x="335.5" y="-69.8" font-family="Times,serif" font-size="14.00">data &#45;1.0719</text>
<polyline fill="none" stroke="black" points="378,-55.5 378,-91.5 "/>
<text text-anchor="middle" x="419" y="-69.8" font-family="Times,serif" font-size="14.00">grad 0.0000</text>
</g>
<!-- 124464894968512+ -->
<g id="node15" class="node">
<title>124464894968512+</title>
<ellipse fill="none" stroke="black" cx="523" cy="-107.5" rx="27" ry="18"/>
<text text-anchor="middle" x="523" y="-103.8" font-family="Times,serif" font-size="14.00">+</text>
</g>
<!-- 124464894968320&#45;&gt;124464894968512+ -->
<g id="edge39" class="edge">
<title>124464894968320&#45;&gt;124464894968512+</title>
<path fill="none" stroke="black" d="M454.4,-91.6C465.91,-94.3 477.26,-96.97 487.27,-99.33"/>
<polygon fill="black" stroke="black" points="486.64,-102.78 497.18,-101.66 488.25,-95.96 486.64,-102.78"/>
</g>
<!-- 124464894968320*&#45;&gt;124464894968320 -->
<g id="edge4" class="edge">
<title>124464894968320*&#45;&gt;124464894968320</title>
<path fill="none" stroke="black" d="M256.83,-85C264.55,-84.25 273.48,-83.38 282.92,-82.47"/>
<polygon fill="black" stroke="black" points="283.29,-85.95 292.91,-81.5 282.62,-78.98 283.29,-85.95"/>
</g>
<!-- 124464894968512 -->
<g id="node14" class="node">
<title>124464894968512</title>
<polygon fill="none" stroke="black" points="586,-89.5 586,-125.5 753,-125.5 753,-89.5 586,-89.5"/>
<text text-anchor="middle" x="628.5" y="-103.8" font-family="Times,serif" font-size="14.00">data &#45;1.9141</text>
<polyline fill="none" stroke="black" points="671,-89.5 671,-125.5 "/>
<text text-anchor="middle" x="712" y="-103.8" font-family="Times,serif" font-size="14.00">grad 0.0000</text>
</g>
<!-- 124464894968896+ -->
<g id="node19" class="node">
<title>124464894968896+</title>
<ellipse fill="none" stroke="black" cx="816" cy="-79.5" rx="27" ry="18"/>
<text text-anchor="middle" x="816" y="-75.8" font-family="Times,serif" font-size="14.00">+</text>
</g>
<!-- 124464894968512&#45;&gt;124464894968896+ -->
<g id="edge32" class="edge">
<title>124464894968512&#45;&gt;124464894968896+</title>
<path fill="none" stroke="black" d="M753.3,-91.46C762.61,-89.65 771.68,-87.89 779.88,-86.31"/>
<polygon fill="black" stroke="black" points="780.59,-89.73 789.75,-84.39 779.26,-82.86 780.59,-89.73"/>
</g>
<!-- 124464894968512+&#45;&gt;124464894968512 -->
<g id="edge5" class="edge">
<title>124464894968512+&#45;&gt;124464894968512</title>
<path fill="none" stroke="black" d="M550.17,-107.5C557.75,-107.5 566.5,-107.5 575.74,-107.5"/>
<polygon fill="black" stroke="black" points="575.92,-111 585.92,-107.5 575.92,-104 575.92,-111"/>
</g>
<!-- 124464894968704 -->
<g id="node16" class="node">
<title>124464894968704</title>
<polygon fill="none" stroke="black" points="588.5,-34.5 588.5,-70.5 750.5,-70.5 750.5,-34.5 588.5,-34.5"/>
<text text-anchor="middle" x="628.5" y="-48.8" font-family="Times,serif" font-size="14.00">data 0.3206</text>
<polyline fill="none" stroke="black" points="668.5,-34.5 668.5,-70.5 "/>
<text text-anchor="middle" x="709.5" y="-48.8" font-family="Times,serif" font-size="14.00">grad 0.0000</text>
</g>
<!-- 124464894968704&#45;&gt;124464894968896+ -->
<g id="edge19" class="edge">
<title>124464894968704&#45;&gt;124464894968896+</title>
<path fill="none" stroke="black" d="M750.78,-67.5C760.96,-69.4 770.92,-71.26 779.85,-72.93"/>
<polygon fill="black" stroke="black" points="779.33,-76.4 789.8,-74.79 780.61,-69.51 779.33,-76.4"/>
</g>
<!-- 124464894968704* -->
<g id="node17" class="node">
<title>124464894968704*</title>
<ellipse fill="none" stroke="black" cx="523" cy="-52.5" rx="27" ry="18"/>
<text text-anchor="middle" x="523" y="-48.8" font-family="Times,serif" font-size="14.00">*</text>
</g>
<!-- 124464894968704*&#45;&gt;124464894968704 -->
<g id="edge6" class="edge">
<title>124464894968704*&#45;&gt;124464894968704</title>
<path fill="none" stroke="black" d="M550.17,-52.5C558.4,-52.5 568.01,-52.5 578.12,-52.5"/>
<polygon fill="black" stroke="black" points="578.37,-56 588.37,-52.5 578.37,-49 578.37,-56"/>
</g>
<!-- 124464894968896 -->
<g id="node18" class="node">
<title>124464894968896</title>
<polygon fill="none" stroke="black" points="879,-61.5 879,-97.5 1046,-97.5 1046,-61.5 879,-61.5"/>
<text text-anchor="middle" x="921.5" y="-75.8" font-family="Times,serif" font-size="14.00">data &#45;1.5935</text>
<polyline fill="none" stroke="black" points="964,-61.5 964,-97.5 "/>
<text text-anchor="middle" x="1005" y="-75.8" font-family="Times,serif" font-size="14.00">grad 0.0000</text>
</g>
<!-- 124464894968944ReLU -->
<g id="node21" class="node">
<title>124464894968944ReLU</title>
<ellipse fill="none" stroke="black" cx="1114.5" cy="-79.5" rx="32.49" ry="18"/>
<text text-anchor="middle" x="1114.5" y="-75.8" font-family="Times,serif" font-size="14.00">ReLU</text>
</g>
<!-- 124464894968896&#45;&gt;124464894968944ReLU -->
<g id="edge38" class="edge">
<title>124464894968896&#45;&gt;124464894968944ReLU</title>
<path fill="none" stroke="black" d="M1046.4,-79.5C1055.16,-79.5 1063.78,-79.5 1071.76,-79.5"/>
<polygon fill="black" stroke="black" points="1071.86,-83 1081.86,-79.5 1071.86,-76 1071.86,-83"/>
</g>
<!-- 124464894968896+&#45;&gt;124464894968896 -->
<g id="edge7" class="edge">
<title>124464894968896+&#45;&gt;124464894968896</title>
<path fill="none" stroke="black" d="M843.17,-79.5C850.75,-79.5 859.5,-79.5 868.74,-79.5"/>
<polygon fill="black" stroke="black" points="868.92,-83 878.92,-79.5 868.92,-76 868.92,-83"/>
</g>
<!-- 124464894968944 -->
<g id="node20" class="node">
<title>124464894968944</title>
<polygon fill="none" stroke="black" points="1182.99,-61.5 1182.99,-97.5 1344.99,-97.5 1344.99,-61.5 1182.99,-61.5"/>
<text text-anchor="middle" x="1222.99" y="-75.8" font-family="Times,serif" font-size="14.00">data 0.0000</text>
<polyline fill="none" stroke="black" points="1262.99,-61.5 1262.99,-97.5 "/>
<text text-anchor="middle" x="1303.99" y="-75.8" font-family="Times,serif" font-size="14.00">grad 0.4289</text>
</g>
<!-- 124464894968944&#45;&gt;124464894969616* -->
<g id="edge34" class="edge">
<title>124464894968944&#45;&gt;124464894969616*</title>
<path fill="none" stroke="black" d="M1336.41,-97.61C1348.97,-100.79 1361.51,-103.97 1372.47,-106.75"/>
<polygon fill="black" stroke="black" points="1371.88,-110.21 1382.43,-109.27 1373.6,-103.42 1371.88,-110.21"/>
</g>
<!-- 124464894968944ReLU&#45;&gt;124464894968944 -->
<g id="edge8" class="edge">
<title>124464894968944ReLU&#45;&gt;124464894968944</title>
<path fill="none" stroke="black" d="M1147.14,-79.5C1154.97,-79.5 1163.76,-79.5 1172.9,-79.5"/>
<polygon fill="black" stroke="black" points="1172.92,-83 1182.92,-79.5 1172.92,-76 1172.92,-83"/>
</g>
<!-- 124464909327472 -->
<g id="node22" class="node">
<title>124464909327472</title>
<polygon fill="none" stroke="black" points="588.5,-275.5 588.5,-311.5 750.5,-311.5 750.5,-275.5 588.5,-275.5"/>
<text text-anchor="middle" x="628.5" y="-289.8" font-family="Times,serif" font-size="14.00">data 1.7463</text>
<polyline fill="none" stroke="black" points="668.5,-275.5 668.5,-311.5 "/>
<text text-anchor="middle" x="709.5" y="-289.8" font-family="Times,serif" font-size="14.00">grad 0.0000</text>
</g>
<!-- 124464909327472&#45;&gt;124464894967984+ -->
<g id="edge30" class="edge">
<title>124464909327472&#45;&gt;124464894967984+</title>
<path fill="none" stroke="black" d="M744.87,-275.49C757.34,-272.47 769.73,-269.47 780.54,-266.85"/>
<polygon fill="black" stroke="black" points="781.49,-270.22 790.38,-264.46 779.84,-263.42 781.49,-270.22"/>
</g>
<!-- 124464909327472+&#45;&gt;124464909327472 -->
<g id="edge9" class="edge">
<title>124464909327472+&#45;&gt;124464909327472</title>
<path fill="none" stroke="black" d="M550.17,-293.5C558.4,-293.5 568.01,-293.5 578.12,-293.5"/>
<polygon fill="black" stroke="black" points="578.37,-297 588.37,-293.5 578.37,-290 578.37,-297"/>
</g>
<!-- 124464894786736 -->
<g id="node24" class="node">
<title>124464894786736</title>
<polygon fill="none" stroke="black" points="293,-220.5 293,-256.5 460,-256.5 460,-220.5 293,-220.5"/>
<text text-anchor="middle" x="335.5" y="-234.8" font-family="Times,serif" font-size="14.00">data &#45;0.8921</text>
<polyline fill="none" stroke="black" points="378,-220.5 378,-256.5 "/>
<text text-anchor="middle" x="419" y="-234.8" font-family="Times,serif" font-size="14.00">grad 0.0000</text>
</g>
<!-- 124465148227088* -->
<g id="node29" class="node">
<title>124465148227088*</title>
<ellipse fill="none" stroke="black" cx="523" cy="-238.5" rx="27" ry="18"/>
<text text-anchor="middle" x="523" y="-234.8" font-family="Times,serif" font-size="14.00">*</text>
</g>
<!-- 124464894786736&#45;&gt;124465148227088* -->
<g id="edge20" class="edge">
<title>124464894786736&#45;&gt;124465148227088*</title>
<path fill="none" stroke="black" d="M460.3,-238.5C469.14,-238.5 477.77,-238.5 485.64,-238.5"/>
<polygon fill="black" stroke="black" points="485.85,-242 495.85,-238.5 485.85,-235 485.85,-242"/>
</g>
<!-- 124464894371088 -->
<g id="node25" class="node">
<title>124464894371088</title>
<polygon fill="none" stroke="black" points="295.5,-165.5 295.5,-201.5 457.5,-201.5 457.5,-165.5 295.5,-165.5"/>
<text text-anchor="middle" x="335.5" y="-179.8" font-family="Times,serif" font-size="14.00">data 3.4000</text>
<polyline fill="none" stroke="black" points="375.5,-165.5 375.5,-201.5 "/>
<text text-anchor="middle" x="416.5" y="-179.8" font-family="Times,serif" font-size="14.00">grad 0.0000</text>
</g>
<!-- 124464894371088&#45;&gt;124464894968704* -->
<g id="edge33" class="edge">
<title>124464894371088&#45;&gt;124464894968704*</title>
<path fill="none" stroke="black" d="M445.73,-165.46C450.86,-162.61 455.7,-159.31 460,-155.5 487.67,-130.97 475.19,-111.06 496,-80.5 497.27,-78.63 498.67,-76.76 500.13,-74.92"/>
<polygon fill="black" stroke="black" points="502.92,-77.05 506.81,-67.2 497.62,-72.48 502.92,-77.05"/>
</g>
<!-- 124464894371088&#45;&gt;124465148227088* -->
<g id="edge22" class="edge">
<title>124464894371088&#45;&gt;124465148227088*</title>
<path fill="none" stroke="black" d="M435.48,-201.6C443.76,-204.44 452.13,-207.45 460,-210.5 470.43,-214.55 481.63,-219.43 491.6,-223.98"/>
<polygon fill="black" stroke="black" points="490.18,-227.18 500.72,-228.2 493.12,-220.83 490.18,-227.18"/>
</g>
<!-- 124464894969232 -->
<g id="node26" class="node">
<title>124464894969232</title>
<polygon fill="none" stroke="black" points="1470.99,-203.5 1470.99,-239.5 1632.99,-239.5 1632.99,-203.5 1470.99,-203.5"/>
<text text-anchor="middle" x="1510.99" y="-217.8" font-family="Times,serif" font-size="14.00">data 0.0000</text>
<polyline fill="none" stroke="black" points="1550.99,-203.5 1550.99,-239.5 "/>
<text text-anchor="middle" x="1591.99" y="-217.8" font-family="Times,serif" font-size="14.00">grad 1.0000</text>
</g>
<!-- 124464894969232&#45;&gt;124464894969424+ -->
<g id="edge27" class="edge">
<title>124464894969232&#45;&gt;124464894969424+</title>
<path fill="none" stroke="black" d="M1622.37,-203.45C1653.54,-195.34 1688.94,-186.13 1714.37,-179.51"/>
<polygon fill="black" stroke="black" points="1715.48,-182.84 1724.27,-176.93 1713.71,-176.06 1715.48,-182.84"/>
</g>
<!-- 124464894969232*&#45;&gt;124464894969232 -->
<g id="edge10" class="edge">
<title>124464894969232*&#45;&gt;124464894969232</title>
<path fill="none" stroke="black" d="M1435.04,-221.5C1442.62,-221.5 1451.37,-221.5 1460.59,-221.5"/>
<polygon fill="black" stroke="black" points="1460.75,-225 1470.75,-221.5 1460.75,-218 1460.75,-225"/>
</g>
<!-- 124465148227088 -->
<g id="node28" class="node">
<title>124465148227088</title>
<polygon fill="none" stroke="black" points="586,-220.5 586,-256.5 753,-256.5 753,-220.5 586,-220.5"/>
<text text-anchor="middle" x="628.5" y="-234.8" font-family="Times,serif" font-size="14.00">data &#45;3.0332</text>
<polyline fill="none" stroke="black" points="671,-220.5 671,-256.5 "/>
<text text-anchor="middle" x="712" y="-234.8" font-family="Times,serif" font-size="14.00">grad 0.0000</text>
</g>
<!-- 124465148227088&#45;&gt;124464894967984+ -->
<g id="edge16" class="edge">
<title>124465148227088&#45;&gt;124464894967984+</title>
<path fill="none" stroke="black" d="M753.3,-249.96C762.42,-251.22 771.31,-252.45 779.37,-253.57"/>
<polygon fill="black" stroke="black" points="779.06,-257.06 789.45,-254.96 780.02,-250.13 779.06,-257.06"/>
</g>
<!-- 124465148227088*&#45;&gt;124465148227088 -->
<g id="edge11" class="edge">
<title>124465148227088*&#45;&gt;124465148227088</title>
<path fill="none" stroke="black" d="M550.17,-238.5C557.75,-238.5 566.5,-238.5 575.74,-238.5"/>
<polygon fill="black" stroke="black" points="575.92,-242 585.92,-238.5 575.92,-235 575.92,-242"/>
</g>
<!-- 124464894969424 -->
<g id="node30" class="node">
<title>124464894969424</title>
<polygon fill="none" stroke="black" points="1866.99,-150.5 1866.99,-186.5 2028.99,-186.5 2028.99,-150.5 1866.99,-150.5"/>
<text text-anchor="middle" x="1906.99" y="-164.8" font-family="Times,serif" font-size="14.00">data 0.6988</text>
<polyline fill="none" stroke="black" points="1946.99,-150.5 1946.99,-186.5 "/>
<text text-anchor="middle" x="1987.99" y="-164.8" font-family="Times,serif" font-size="14.00">grad 1.0000</text>
</g>
<!-- 124464894969808+ -->
<g id="node39" class="node">
<title>124464894969808+</title>
<ellipse fill="none" stroke="black" cx="2091.99" cy="-142.5" rx="27" ry="18"/>
<text text-anchor="middle" x="2091.99" y="-138.8" font-family="Times,serif" font-size="14.00">+</text>
</g>
<!-- 124464894969424&#45;&gt;124464894969808+ -->
<g id="edge18" class="edge">
<title>124464894969424&#45;&gt;124464894969808+</title>
<path fill="none" stroke="black" d="M2029.12,-153.83C2038.41,-152.13 2047.49,-150.47 2055.7,-148.96"/>
<polygon fill="black" stroke="black" points="2056.39,-152.39 2065.6,-147.15 2055.13,-145.51 2056.39,-152.39"/>
</g>
<!-- 124464894969424+&#45;&gt;124464894969424 -->
<g id="edge12" class="edge">
<title>124464894969424+&#45;&gt;124464894969424</title>
<path fill="none" stroke="black" d="M1777.02,-170.23C1797.61,-170.02 1827.64,-169.72 1856.75,-169.42"/>
<polygon fill="black" stroke="black" points="1857.03,-172.92 1866.99,-169.32 1856.95,-165.92 1857.03,-172.92"/>
</g>
<!-- 124464894969616 -->
<g id="node32" class="node">
<title>124464894969616</title>
<polygon fill="none" stroke="black" points="1668.99,-97.5 1668.99,-133.5 1830.99,-133.5 1830.99,-97.5 1668.99,-97.5"/>
<text text-anchor="middle" x="1708.99" y="-111.8" font-family="Times,serif" font-size="14.00">data 0.0000</text>
<polyline fill="none" stroke="black" points="1748.99,-97.5 1748.99,-133.5 "/>
<text text-anchor="middle" x="1789.99" y="-111.8" font-family="Times,serif" font-size="14.00">grad 1.0000</text>
</g>
<!-- 124464894969616&#45;&gt;124464894969808+ -->
<g id="edge36" class="edge">
<title>124464894969616&#45;&gt;124464894969808+</title>
<path fill="none" stroke="black" d="M1831.14,-121.86C1901.85,-127.48 2001.67,-135.41 2054.65,-139.61"/>
<polygon fill="black" stroke="black" points="2054.67,-143.13 2064.91,-140.43 2055.22,-136.15 2054.67,-143.13"/>
</g>
<!-- 124464894969616*&#45;&gt;124464894969616 -->
<g id="edge13" class="edge">
<title>124464894969616*&#45;&gt;124464894969616</title>
<path fill="none" stroke="black" d="M1435.11,-115.5C1482.26,-115.5 1583.66,-115.5 1658.52,-115.5"/>
<polygon fill="black" stroke="black" points="1658.89,-119 1668.89,-115.5 1658.89,-112 1658.89,-119"/>
</g>
<!-- 124464894787360 -->
<g id="node34" class="node">
<title>124464894787360</title>
<polygon fill="none" stroke="black" points="295.5,-330.5 295.5,-366.5 457.5,-366.5 457.5,-330.5 295.5,-330.5"/>
<text text-anchor="middle" x="335.5" y="-344.8" font-family="Times,serif" font-size="14.00">data 0.2485</text>
<polyline fill="none" stroke="black" points="375.5,-330.5 375.5,-366.5 "/>
<text text-anchor="middle" x="416.5" y="-344.8" font-family="Times,serif" font-size="14.00">grad 0.0000</text>
</g>
<!-- 124464894787360&#45;&gt;124464909327472+ -->
<g id="edge21" class="edge">
<title>124464894787360&#45;&gt;124464909327472+</title>
<path fill="none" stroke="black" d="M435.48,-330.4C443.76,-327.56 452.13,-324.55 460,-321.5 470.43,-317.45 481.63,-312.57 491.6,-308.02"/>
<polygon fill="black" stroke="black" points="493.12,-311.17 500.72,-303.8 490.18,-304.82 493.12,-311.17"/>
</g>
<!-- 124464894787408 -->
<g id="node35" class="node">
<title>124464894787408</title>
<polygon fill="none" stroke="black" points="0,-69.5 0,-105.5 167,-105.5 167,-69.5 0,-69.5"/>
<text text-anchor="middle" x="42.5" y="-83.8" font-family="Times,serif" font-size="14.00">data &#45;0.5359</text>
<polyline fill="none" stroke="black" points="85,-69.5 85,-105.5 "/>
<text text-anchor="middle" x="126" y="-83.8" font-family="Times,serif" font-size="14.00">grad 0.0000</text>
</g>
<!-- 124464894787408&#45;&gt;124464894968320* -->
<g id="edge26" class="edge">
<title>124464894787408&#45;&gt;124464894968320*</title>
<path fill="none" stroke="black" d="M167.3,-87.5C176.14,-87.5 184.77,-87.5 192.64,-87.5"/>
<polygon fill="black" stroke="black" points="192.85,-91 202.85,-87.5 192.85,-84 192.85,-91"/>
</g>
<!-- 124464894787456 -->
<g id="node36" class="node">
<title>124464894787456</title>
<polygon fill="none" stroke="black" points="293,-110.5 293,-146.5 460,-146.5 460,-110.5 293,-110.5"/>
<text text-anchor="middle" x="335.5" y="-124.8" font-family="Times,serif" font-size="14.00">data &#45;0.8422</text>
<polyline fill="none" stroke="black" points="378,-110.5 378,-146.5 "/>
<text text-anchor="middle" x="419" y="-124.8" font-family="Times,serif" font-size="14.00">grad 0.0000</text>
</g>
<!-- 124464894787456&#45;&gt;124464894968512+ -->
<g id="edge15" class="edge">
<title>124464894787456&#45;&gt;124464894968512+</title>
<path fill="none" stroke="black" d="M460.3,-116.47C469.42,-115.14 478.31,-113.85 486.37,-112.68"/>
<polygon fill="black" stroke="black" points="487.05,-116.12 496.45,-111.21 486.05,-109.19 487.05,-116.12"/>
</g>
<!-- 124464894787504 -->
<g id="node37" class="node">
<title>124464894787504</title>
<polygon fill="none" stroke="black" points="295.5,-0.5 295.5,-36.5 457.5,-36.5 457.5,-0.5 295.5,-0.5"/>
<text text-anchor="middle" x="335.5" y="-14.8" font-family="Times,serif" font-size="14.00">data 0.0943</text>
<polyline fill="none" stroke="black" points="375.5,-0.5 375.5,-36.5 "/>
<text text-anchor="middle" x="416.5" y="-14.8" font-family="Times,serif" font-size="14.00">grad 0.0000</text>
</g>
<!-- 124464894787504&#45;&gt;124464894968704* -->
<g id="edge31" class="edge">
<title>124464894787504&#45;&gt;124464894968704*</title>
<path fill="none" stroke="black" d="M454.4,-36.6C465.91,-39.3 477.26,-41.97 487.27,-44.33"/>
<polygon fill="black" stroke="black" points="486.64,-47.78 497.18,-46.66 488.25,-40.96 486.64,-47.78"/>
</g>
<!-- 124464894969808 -->
<g id="node38" class="node">
<title>124464894969808</title>
<polygon fill="none" stroke="black" points="2154.99,-124.5 2154.99,-160.5 2316.99,-160.5 2316.99,-124.5 2154.99,-124.5"/>
<text text-anchor="middle" x="2194.99" y="-138.8" font-family="Times,serif" font-size="14.00">data 0.6988</text>
<polyline fill="none" stroke="black" points="2234.99,-124.5 2234.99,-160.5 "/>
<text text-anchor="middle" x="2275.99" y="-138.8" font-family="Times,serif" font-size="14.00">grad 1.0000</text>
</g>
<!-- 124464894969808+&#45;&gt;124464894969808 -->
<g id="edge14" class="edge">
<title>124464894969808+&#45;&gt;124464894969808</title>
<path fill="none" stroke="black" d="M2119.04,-142.5C2126.62,-142.5 2135.37,-142.5 2144.59,-142.5"/>
<polygon fill="black" stroke="black" points="2144.75,-146 2154.75,-142.5 2144.75,-139 2144.75,-146"/>
</g>
</g>
</svg>
